<svg xmlns="http://www.w3.org/2000/svg" version="1.1" xmlns:xlink="http://www.w3.org/1999/xlink" xmlns:svgjs="http://svgjs.dev/svgjs" width="1000" height="1000" viewBox="0 0 1000 1000"><rect width="1000" height="1000" fill="#0a1627"></rect><g transform="matrix(0.7,0,0,0.7,149.57575757575756,424.3244537384904)"><svg viewBox="0 0 396 86" data-background-color="#0a1627" preserveAspectRatio="xMidYMid meet" height="217" width="1000" xmlns="http://www.w3.org/2000/svg" xmlns:xlink="http://www.w3.org/1999/xlink"><g id="tight-bounds" transform="matrix(1,0,0,1,0.2400000000000091,-0.15538434762399334)"><svg viewBox="0 0 395.52 86.31076961102207" height="86.31076961102207" width="395.52"><g><svg viewBox="0 0 589.191885098501 128.5740418978067" height="86.31076961102207" width="395.52"><g><rect width="5.334457322116896" height="111.64171510663388" x="409.4845479636568" y="8.466163395586406" fill="#fe0039" opacity="1" stroke-width="0" stroke="transparent" fill-opacity="1" class="rect-o-0" data-fill-palette-color="primary" rx="1%" id="o-0" data-palette-color="#fe0039"></rect></g><g transform="matrix(1,0,0,1,0,17.769639654472563)"><svg viewBox="0 0 395.52 93.03476258886157" height="93.03476258886157" width="395.52"><g><svg viewBox="0 0 395.52 93.03476258886157" height="93.03476258886157" width="395.52"><g><svg viewBox="0 0 395.52 59.15276421007132" height="59.15276421007132" width="395.52"><g transform="matrix(1,0,0,1,0,0)"><svg width="395.52" viewBox="3.0999999046325684 -34.29999923706055 231.32998657226562 34.599998474121094" height="59.15276421007132" data-palette-color="#fe0039"><path d="M3.1 0L3.1-33.85 11.35-33.85 11.35-6.05 23.25-6.05 23.25 0 3.1 0ZM38.05-34.3Q42-34.3 44.85-33.1 47.7-31.9 49.55-29.7 51.4-27.5 52.27-24.33 53.15-21.15 53.15-17.2L53.15-17.2Q53.15-13.3 52.17-10.08 51.2-6.85 49.25-4.55 47.3-2.25 44.35-0.98 41.4 0.3 37.4 0.3L37.4 0.3Q33.45 0.3 30.57-0.83 27.7-1.95 25.85-4.13 24-6.3 23.12-9.4 22.25-12.5 22.25-16.5L22.25-16.5Q22.25-20.4 23.22-23.68 24.2-26.95 26.15-29.33 28.1-31.7 31.07-33 34.05-34.3 38.05-34.3L38.05-34.3ZM37.35-28.45Q34.1-28.45 32.62-25.43 31.15-22.4 31.15-17.05L31.15-17.05Q31.15-14.5 31.47-12.4 31.8-10.3 32.57-8.78 33.35-7.25 34.7-6.4 36.05-5.55 38.1-5.55L38.1-5.55Q41.35-5.55 42.8-8.45 44.25-11.35 44.25-16.7L44.25-16.7Q44.25-19.25 43.92-21.4 43.6-23.55 42.82-25.13 42.05-26.7 40.7-27.58 39.35-28.45 37.35-28.45L37.35-28.45ZM81.9-30.15L77.4-25.6Q76-27.3 74.7-27.88 73.4-28.45 72.09-28.45L72.09-28.45Q68.84-28.45 67.37-25.43 65.9-22.4 65.9-17.05L65.9-17.05Q65.9-14.5 66.22-12.38 66.55-10.25 67.34-8.75 68.15-7.25 69.47-6.4 70.8-5.55 72.8-5.55L72.8-5.55Q74.55-5.55 76.22-5.98 77.9-6.4 79.3-6.95L79.3-6.95 81.09-1.35Q79.55-0.7 77.2-0.2 74.84 0.3 71.8 0.3L71.8 0.3Q64.09 0.3 60.55-4.08 57-8.45 57-16.5L57-16.5Q57-20.4 57.92-23.65 58.84-26.9 60.72-29.28 62.59-31.65 65.42-32.98 68.25-34.3 72.09-34.3L72.09-34.3Q74.09-34.3 75.62-33.95 77.15-33.6 78.3-33.02 79.45-32.45 80.32-31.7 81.2-30.95 81.9-30.15L81.9-30.15ZM85.59 0L85.59-33.85 93.84-33.85 93.84 0 85.59 0ZM111.99-33.85Q111.29-30.3 110.37-27.75 109.44-25.2 108.34-23.33 107.24-21.45 105.99-20.15 104.74-18.85 103.39-17.8L103.39-17.8 115.09 0 105.89 0 94.39-18.55 94.39-19.15Q96.59-20.2 98.12-21.63 99.64-23.05 100.69-24.88 101.74-26.7 102.47-28.93 103.19-31.15 103.79-33.85L103.79-33.85 111.99-33.85ZM112.49-13.05L112.49-18.6 127.04-18.6 127.04-13.05 112.49-13.05ZM124.24-33.85L149.39-33.85 148.34-27.8 140.54-27.8 140.54 0 132.29 0 132.29-27.8 124.24-27.8 124.24-33.85ZM146.44 0L159.29-33.85 166.64-33.85 179.04 0 170.69 0 168.19-8.15 157.24-8.15 154.64 0 146.44 0ZM159.14-14.25L166.34-14.25Q165.84-15.7 165.31-17.28 164.79-18.85 164.31-20.35 163.84-21.85 163.44-23.18 163.04-24.5 162.74-25.4L162.74-25.4Q162.44-24.45 162.04-23.13 161.64-21.8 161.16-20.3 160.69-18.8 160.16-17.25 159.64-15.7 159.14-14.25L159.14-14.25ZM182.03 0L182.03-33.85 190.28-33.85 190.28-6.05 202.18-6.05 202.18 0 182.03 0ZM204.93 0L204.93-33.85 213.18-33.85 213.18 0 204.93 0ZM231.33-33.85Q230.63-30.3 229.71-27.75 228.78-25.2 227.68-23.33 226.58-21.45 225.33-20.15 224.08-18.85 222.73-17.8L222.73-17.8 234.43 0 225.23 0 213.73-18.55 213.73-19.15Q215.93-20.2 217.46-21.63 218.98-23.05 220.03-24.88 221.08-26.7 221.81-28.93 222.53-31.15 223.13-33.85L223.13-33.85 231.33-33.85Z" opacity="1" transform="matrix(1,0,0,1,0,0)" fill="#fe0039" class="undefined-text-0" data-fill-palette-color="primary" id="text-0"></path></svg></g></svg></g><g transform="matrix(1,0,0,1,163.310208,73.11731217372811)"><svg viewBox="0 0 232.209792 19.91745041513345" height="19.91745041513345" width="232.209792"><g transform="matrix(1,0,0,1,0,0)"><svg width="232.209792" viewBox="5.25 -36.400001525878906 578.7899780273438 49.650001525878906" height="19.91745041513345" data-palette-color="#c1c1c1"><path d="M5.25-0.05L5.25-34.25 7.35-34.25 7.35-2.05 25.15-2.05 25.15-0.05 5.25-0.05ZM39.8 0.45Q36.25 0.45 33.52-1.15 30.8-2.75 29.27-5.65 27.75-8.55 27.75-12.3L27.75-12.3Q27.75-16.1 29.27-19.03 30.8-21.95 33.55-23.6 36.3-25.25 39.85-25.25L39.85-25.25Q43.4-25.25 46.15-23.63 48.9-22 50.42-19.07 51.95-16.15 51.95-12.35L51.95-12.35Q51.95-8.6 50.42-5.68 48.9-2.75 46.15-1.15 43.4 0.45 39.8 0.45L39.8 0.45ZM39.85-1.45Q42.8-1.45 45.07-2.85 47.35-4.25 48.6-6.78 49.85-9.3 49.85-12.55L49.85-12.55Q49.85-15.75 48.6-18.2 47.35-20.65 45.07-22 42.8-23.35 39.85-23.35L39.85-23.35Q36.9-23.35 34.62-21.98 32.35-20.6 31.1-18.1 29.85-15.6 29.85-12.35L29.85-12.35Q29.85-9.15 31.1-6.68 32.35-4.2 34.62-2.83 36.9-1.45 39.85-1.45L39.85-1.45ZM68.09 0.3Q62.7 0.3 59.67-2.98 56.65-6.25 56.65-12.1L56.65-12.1Q56.65-16.15 58.1-19.18 59.55-22.2 62.25-23.85 64.95-25.5 68.5-25.5L68.5-25.5Q72.5-25.5 75.4-22.75L75.4-22.75 74.05-21.4Q72.84-22.55 71.5-23.08 70.15-23.6 68.5-23.6L68.5-23.6Q65.65-23.6 63.42-22.13 61.2-20.65 59.97-18 58.75-15.35 58.75-11.95L58.75-11.95Q58.75-7.15 61.32-4.38 63.9-1.6 68.34-1.6L68.34-1.6Q70.2-1.6 72.12-2.18 74.05-2.75 76.3-4L76.3-4 77.25-2.45Q75.25-1.15 72.84-0.43 70.45 0.3 68.09 0.3L68.09 0.3ZM92.39-13.65L102.24 0 99.89 0 91.69-11.4Q91.24-12.1 90.17-12.43 89.09-12.75 87.84-12.75L87.84-12.75 84.59-12.75 84.59 0 82.49 0 82.49-36.3 84.59-36.3 84.59-14.65 86.89-14.65Q88.59-14.65 89.62-14.75 90.64-14.85 91.49-15.3L91.49-15.3Q93.19-16.2 94.52-18.05 95.84-19.9 96.59-21.85 97.34-23.8 97.59-25L97.59-25 99.59-25Q99.44-23.2 98.24-20.73 97.04-18.25 95.42-16.25 93.79-14.25 92.39-13.65L92.39-13.65ZM107.24-14.3L107.24-16.3 121.69-16.3 121.69-14.3 107.24-14.3ZM137.09-0.05L137.09-32.2 125.09-32.2 125.09-34.25 151.29-34.25 151.29-32.2 139.34-32.2 139.34-0.05 137.09-0.05ZM170.14 0.25Q169.04-0.65 168.56-1.63 168.09-2.6 167.54-4.4L167.54-4.4Q165.74 0.45 159.54 0.45L159.54 0.45Q155.54 0.45 153.34-1.55 151.14-3.55 151.14-7.15L151.14-7.15Q151.14-11 153.79-12.95 156.44-14.9 161.59-14.9L161.59-14.9 167.44-14.9 167.44-17.1Q167.44-20.45 166.09-21.98 164.74-23.5 161.64-23.5L161.64-23.5Q159.54-23.5 157.46-22.85 155.39-22.2 153.74-20.95L153.74-20.95 152.74-22.5Q156.49-25.5 161.69-25.5L161.69-25.5Q165.69-25.5 167.61-23.58 169.54-21.65 169.54-17.65L169.54-17.65 169.54-7.05Q169.54-3.15 171.39-1L171.39-1 170.14 0.25ZM159.59-1.45Q163.14-1.45 165.29-3.48 167.44-5.5 167.44-8.75L167.44-8.75 167.44-13 161.84-13Q157.29-13 155.26-11.6 153.24-10.2 153.24-7.2L153.24-7.2Q153.24-4.4 154.94-2.93 156.64-1.45 159.59-1.45L159.59-1.45ZM177.88-0.05L177.88-36.35 179.98-36.35 179.98-0.05 177.88-0.05ZM198.28-13.65L208.13 0 205.78 0 197.58-11.4Q197.13-12.1 196.06-12.43 194.98-12.75 193.73-12.75L193.73-12.75 190.48-12.75 190.48 0 188.38 0 188.38-36.3 190.48-36.3 190.48-14.65 192.78-14.65Q194.48-14.65 195.51-14.75 196.53-14.85 197.38-15.3L197.38-15.3Q199.08-16.2 200.41-18.05 201.73-19.9 202.48-21.85 203.23-23.8 203.48-25L203.48-25 205.48-25Q205.33-23.2 204.13-20.73 202.93-18.25 201.31-16.25 199.68-14.25 198.28-13.65L198.28-13.65ZM215.18 0.45Q214.38 0.45 213.88-0.05 213.38-0.55 213.38-1.35L213.38-1.35Q213.38-2.15 213.88-2.65 214.38-3.15 215.18-3.15L215.18-3.15Q215.98-3.15 216.5-2.65 217.03-2.15 217.03-1.35L217.03-1.35Q217.03-0.55 216.5-0.05 215.98 0.45 215.18 0.45L215.18 0.45ZM215.18-19.65Q214.38-19.65 213.88-20.15 213.38-20.65 213.38-21.45L213.38-21.45Q213.38-22.25 213.88-22.75 214.38-23.25 215.18-23.25L215.18-23.25Q215.98-23.25 216.5-22.75 217.03-22.25 217.03-21.45L217.03-21.45Q217.03-20.65 216.5-20.15 215.98-19.65 215.18-19.65L215.18-19.65ZM248.62 1.05Q246.22 1.05 243.72 0.05 241.22-0.95 239.35-2.75 237.47-4.55 236.77-6.85L236.77-6.85 238.72-7.6Q239.82-4.55 242.67-2.75 245.52-0.95 248.62-0.95L248.62-0.95Q251.07-0.95 253.1-2.02 255.12-3.1 256.3-5 257.47-6.9 257.47-9.25L257.47-9.25Q257.47-11.65 255.82-13.33 254.17-15 250.42-17.2L250.42-17.2 247.82-18.65Q245.07-20.1 243.55-21.13 242.02-22.15 241.07-23.58 240.12-25 240.12-27.05L240.12-27.05Q240.12-29.4 241.32-31.23 242.52-33.05 244.6-34.02 246.67-35 249.17-35L249.17-35Q252.32-35 254.47-33.5 256.62-32 256.67-29.55L256.67-29.55 254.47-29.65Q254.32-31.3 252.65-32.15 250.97-33 249.02-33L249.02-33Q247.22-33 245.67-32.23 244.12-31.45 243.17-30.1 242.22-28.75 242.22-27.2L242.22-27.2Q242.22-24.8 244.05-23.28 245.87-21.75 249.07-20.15L249.07-20.15Q250.37-19.55 251.07-19.1L251.07-19.1Q255.57-16.4 257.62-14.23 259.67-12.05 259.67-9.2L259.67-9.2Q259.67-6.2 258.15-3.85 256.62-1.5 254.1-0.23 251.57 1.05 248.62 1.05L248.62 1.05ZM272.87 0.65Q269.37 0.65 267.7-1.23 266.02-3.1 266.02-7L266.02-7 266.02-31.15 268.12-31.15 268.12-24.75 276.17-24.75 276.17-22.75 268.12-22.75 268.12-7Q268.12-3.8 269.55-2.53 270.97-1.25 272.82-1.25L272.82-1.25Q274.52-1.25 275.92-2L275.92-2 276.97-0.25Q275.47 0.65 272.87 0.65L272.87 0.65ZM299.32 0.25Q298.22-0.65 297.74-1.63 297.27-2.6 296.72-4.4L296.72-4.4Q294.92 0.45 288.72 0.45L288.72 0.45Q284.72 0.45 282.52-1.55 280.32-3.55 280.32-7.15L280.32-7.15Q280.32-11 282.97-12.95 285.62-14.9 290.77-14.9L290.77-14.9 296.62-14.9 296.62-17.1Q296.62-20.45 295.27-21.98 293.92-23.5 290.82-23.5L290.82-23.5Q288.72-23.5 286.64-22.85 284.57-22.2 282.92-20.95L282.92-20.95 281.92-22.5Q285.67-25.5 290.87-25.5L290.87-25.5Q294.87-25.5 296.79-23.58 298.72-21.65 298.72-17.65L298.72-17.65 298.72-7.05Q298.72-3.15 300.57-1L300.57-1 299.32 0.25ZM288.77-1.45Q292.32-1.45 294.47-3.48 296.62-5.5 296.62-8.75L296.62-8.75 296.62-13 291.02-13Q286.47-13 284.44-11.6 282.42-10.2 282.42-7.2L282.42-7.2Q282.42-4.4 284.12-2.93 285.82-1.45 288.77-1.45L288.77-1.45ZM305.82 11.45Q308.57 11.35 309.97 10.35L309.97 10.35Q310.67 9.8 311.32 8.93 311.97 8.05 312.27 7.15L312.27 7.15 314.22 0.95 303.42-25 305.62-25 315.17-1.8 322.22-25 324.42-25 314.22 7.85Q313.37 10.45 311.37 11.85L311.37 11.85Q309.37 13.2 306.12 13.25L306.12 13.25 305.82 11.45ZM359.16 1Q354.31 1 350.46-1.4 346.61-3.8 344.44-7.88 342.26-11.95 342.26-16.85L342.26-16.85Q342.26-21.85 344.54-26.13 346.81-30.4 350.74-32.93 354.66-35.45 359.36-35.45L359.36-35.45Q363.56-35.45 367.01-33.73 370.46-32 370.86-27.6L370.86-27.6 368.81-27.6Q368.41-30.95 365.39-32.2 362.36-33.45 359.11-33.45L359.11-33.45Q355.11-33.45 351.71-31.1 348.31-28.75 346.34-24.88 344.36-21 344.36-16.7L344.36-16.7Q344.36-12.55 346.26-8.93 348.16-5.3 351.56-3.15 354.96-1 359.21-1L359.21-1Q362.86-1 366.09-2.65 369.31-4.3 371.31-7.1L371.31-7.1 373.01-5.95Q370.56-2.5 366.91-0.75 363.26 1 359.16 1L359.16 1ZM388.81 0.45Q385.26 0.45 382.53-1.15 379.81-2.75 378.28-5.65 376.76-8.55 376.76-12.3L376.76-12.3Q376.76-16.1 378.28-19.03 379.81-21.95 382.56-23.6 385.31-25.25 388.86-25.25L388.86-25.25Q392.41-25.25 395.16-23.63 397.91-22 399.43-19.07 400.96-16.15 400.96-12.35L400.96-12.35Q400.96-8.6 399.43-5.68 397.91-2.75 395.16-1.15 392.41 0.45 388.81 0.45L388.81 0.45ZM388.86-1.45Q391.81-1.45 394.08-2.85 396.36-4.25 397.61-6.78 398.86-9.3 398.86-12.55L398.86-12.55Q398.86-15.75 397.61-18.2 396.36-20.65 394.08-22 391.81-23.35 388.86-23.35L388.86-23.35Q385.91-23.35 383.63-21.98 381.36-20.6 380.11-18.1 378.86-15.6 378.86-12.35L378.86-12.35Q378.86-9.15 380.11-6.68 381.36-4.2 383.63-2.83 385.91-1.45 388.86-1.45L388.86-1.45ZM407.21-17.7Q407.21-21.5 405.31-23.75L405.31-23.75 406.56-25Q408.86-23.25 409.11-19.75L409.11-19.75Q410.86-22.6 412.98-23.93 415.11-25.25 418.26-25.25L418.26-25.25Q422.11-25.25 424.16-23.28 426.21-21.3 426.16-17.4L426.16-17.4 426.01-0.05 424.01-0.05 424.06-16.85Q424.06-23.35 418.01-23.35L418.01-23.35Q415.26-23.35 413.28-22.03 411.31-20.7 409.31-17.9L409.31-17.9 409.31-0.05 407.21-0.05 407.21-17.7ZM434.3-17.7Q434.3-21.5 432.4-23.75L432.4-23.75 433.65-25Q435.95-23.25 436.2-19.75L436.2-19.75Q437.95-22.6 440.08-23.93 442.2-25.25 445.35-25.25L445.35-25.25Q449.2-25.25 451.25-23.28 453.3-21.3 453.25-17.4L453.25-17.4 453.1-0.05 451.1-0.05 451.15-16.85Q451.15-23.35 445.1-23.35L445.1-23.35Q442.35-23.35 440.38-22.03 438.4-20.7 436.4-17.9L436.4-17.9 436.4-0.05 434.3-0.05 434.3-17.7ZM461.5-11.75Q461.5-8.05 463.33-4.73 465.15-1.4 470.65-1.4L470.65-1.4Q472.7-1.4 474.5-1.98 476.3-2.55 478.55-3.8L478.55-3.8 479.5-2.25Q477.55-0.95 475.2-0.23 472.85 0.5 470.35 0.5L470.35 0.5Q465.15 0.5 462.28-2.8 459.4-6.1 459.4-11.65L459.4-11.65Q459.4-15.6 460.75-18.7 462.1-21.8 464.58-23.53 467.05-25.25 470.4-25.25L470.4-25.25Q473.3-25.25 475.58-23.93 477.85-22.6 479.13-20.28 480.4-17.95 480.4-14.95L480.4-14.95Q480.4-14.05 480.2-11.75L480.2-11.75 461.5-11.75ZM461.6-13.65L478.2-13.65Q478.3-14.2 478.3-15.05L478.3-15.05Q478.3-17.45 477.23-19.38 476.15-21.3 474.35-22.38 472.55-23.45 470.4-23.45L470.4-23.45Q466.9-23.45 464.48-20.75 462.05-18.05 461.6-13.65L461.6-13.65ZM497 0.3Q491.6 0.3 488.57-2.98 485.55-6.25 485.55-12.1L485.55-12.1Q485.55-16.15 487-19.18 488.45-22.2 491.15-23.85 493.85-25.5 497.4-25.5L497.4-25.5Q501.4-25.5 504.3-22.75L504.3-22.75 502.95-21.4Q501.75-22.55 500.4-23.08 499.05-23.6 497.4-23.6L497.4-23.6Q494.55-23.6 492.32-22.13 490.1-20.65 488.87-18 487.65-15.35 487.65-11.95L487.65-11.95Q487.65-7.15 490.22-4.38 492.8-1.6 497.25-1.6L497.25-1.6Q499.1-1.6 501.02-2.18 502.95-2.75 505.2-4L505.2-4 506.15-2.45Q504.15-1.15 501.75-0.43 499.35 0.3 497 0.3L497 0.3ZM517.9 0.65Q514.4 0.65 512.72-1.23 511.05-3.1 511.05-7L511.05-7 511.05-31.15 513.15-31.15 513.15-24.75 521.2-24.75 521.2-22.75 513.15-22.75 513.15-7Q513.15-3.8 514.57-2.53 516-1.25 517.85-1.25L517.85-1.25Q519.55-1.25 520.95-2L520.95-2 522-0.25Q520.5 0.65 517.9 0.65L517.9 0.65ZM526.89-11.75Q526.89-8.05 528.72-4.73 530.54-1.4 536.04-1.4L536.04-1.4Q538.09-1.4 539.89-1.98 541.69-2.55 543.94-3.8L543.94-3.8 544.89-2.25Q542.94-0.95 540.59-0.23 538.24 0.5 535.74 0.5L535.74 0.5Q530.54 0.5 527.67-2.8 524.79-6.1 524.79-11.65L524.79-11.65Q524.79-15.6 526.14-18.7 527.49-21.8 529.97-23.53 532.44-25.25 535.79-25.25L535.79-25.25Q538.69-25.25 540.97-23.93 543.24-22.6 544.52-20.28 545.79-17.95 545.79-14.95L545.79-14.95Q545.79-14.05 545.59-11.75L545.59-11.75 526.89-11.75ZM526.99-13.65L543.59-13.65Q543.69-14.2 543.69-15.05L543.69-15.05Q543.69-17.45 542.62-19.38 541.54-21.3 539.74-22.38 537.94-23.45 535.79-23.45L535.79-23.45Q532.29-23.45 529.87-20.75 527.44-18.05 526.99-13.65L526.99-13.65ZM561.44 0.45Q558.14 0.45 555.77-1.25 553.39-2.95 552.17-5.85 550.94-8.75 550.94-12.25L550.94-12.25Q550.94-16.05 552.34-19 553.74-21.95 556.47-23.6 559.19-25.25 562.99-25.25L562.99-25.25Q564.19-25.25 566.14-25.1 568.09-24.95 569.49-24.75L569.49-24.75 569.49-36.4 571.59-36.4 571.59-7.05Q571.59-3.25 573.44-1L573.44-1 572.19 0.25Q570.24-1.3 569.64-4.7L569.64-4.7Q568.59-2.05 566.39-0.8 564.19 0.45 561.44 0.45L561.44 0.45ZM561.59-1.5Q563.99-1.5 565.89-2.7 567.79-3.9 568.74-5.85L568.74-5.85Q569.49-7.3 569.49-9.3L569.49-9.3 569.49-22.75Q566.49-23.1 565.19-23.2 563.89-23.3 562.54-23.3L562.54-23.3Q559.69-23.3 557.54-21.85 555.39-20.4 554.27-17.93 553.14-15.45 553.14-12.4L553.14-12.4Q553.14-9.45 554.12-6.98 555.09-4.5 557.02-3 558.94-1.5 561.59-1.5L561.59-1.5ZM582.19 0.15Q581.39 0.15 580.89-0.35 580.39-0.85 580.39-1.65L580.39-1.65Q580.39-2.45 580.89-2.95 581.39-3.45 582.19-3.45L582.19-3.45Q582.99-3.45 583.51-2.95 584.04-2.45 584.04-1.65L584.04-1.65Q584.04-0.85 583.51-0.35 582.99 0.15 582.19 0.15L582.19 0.15Z" opacity="1" transform="matrix(1,0,0,1,0,0)" fill="#c1c1c1" class="undefined-text-1" data-fill-palette-color="secondary" id="text-1"></path></svg></g></svg></g></svg></g></svg></g><g transform="matrix(1,0,0,1,428.7835532494305,0)"><svg viewBox="0 0 160.40833184907046 128.5740418978067" height="128.5740418978067" width="160.40833184907046"><g><svg xmlns="http://www.w3.org/2000/svg" xmlns:xlink="http://www.w3.org/1999/xlink" version="1.1" x="0" y="0" viewBox="14.115336418151855 21.235000610351562 71.76791381835938 57.52500915527344" style="enable-background:new 0 0 100 100;" xml:space="preserve" height="128.5740418978067" width="160.40833184907046" class="icon-icon-0" data-fill-palette-color="accent" id="icon-0"><g fill="#c1c1c1" data-fill-palette-color="accent"><circle cx="31.059" cy="57.374" r="1.2" fill="#c1c1c1" data-fill-palette-color="accent"></circle><path d="M28.371 65.328c-0.087-0.509-0.033-0.98 0.074-1.381 0.204 0.469 0.514 0.863 0.927 1.178 2.023 1.546 5.828 0.528 5.988 0.483 0.115-0.032 0.216-0.104 0.283-0.203 0.394-0.584 0.732-1.208 1.006-1.854 0.052-0.124 0.053-0.263 0.001-0.387-0.036-0.088-0.097-0.162-0.173-0.217 0.093-0.012 0.186-0.027 0.277-0.049 0.362-0.083 0.697-0.233 0.995-0.449 0.29-0.208 0.533-0.467 0.723-0.769 0.19-0.304 0.317-0.635 0.379-0.981 0.064-0.36 0.057-0.728-0.026-1.093-0.083-0.364-0.234-0.699-0.449-0.995-0.196-0.273-0.438-0.505-0.719-0.69-0.587-0.585-1.262-1.326-1.86-2.054 0.067-0.256 0.089-0.539 0.016-0.759-0.173-0.518-0.656-0.829-1.173-0.829-0.235-0.392-0.385-0.727-0.385-0.948 0.002-0.033 0.015-0.4-0.073-0.91 0-0.01 0.004-0.018 0.003-0.028-0.02-0.252 0.169-0.473 0.421-0.493 0.112-0.008 0.24 0.028 0.334 0.108 0.093 0.079 0.149 0.19 0.159 0.312 0.021 0.275 0.272 0.502 0.537 0.459 0.275-0.021 0.48-0.262 0.459-0.537-0.029-0.388-0.209-0.741-0.506-0.994-0.296-0.253-0.668-0.383-1.063-0.345-0.27 0.021-0.509 0.138-0.723 0.293-0.181-0.392-0.43-0.795-0.785-1.173-0.286-0.305-0.624-0.557-0.992-0.777 1.261-0.963 1.939-1.992 2.005-3.066 0.093-1.503-1.053-2.476-1.102-2.516l-0.14-0.116H32.61c-2.1 0-6.734 0.748-6.941 0.782-0.115 0.021-11.552 2.243-11.552 11.634 0 8.38 2.955 9.614 3.683 9.787 0.327 0.445 0.68 0.874 1.071 1.266 0.426 0.426 0.895 0.81 1.385 1.161l-0.822 2.041c-2.268 0.111-4.38 1.506-5.282 3.747-0.104 0.256 0.021 0.547 0.277 0.65 0.257 0.102 0.548-0.021 0.65-0.277 1.028-2.557 3.946-3.798 6.506-2.771 2.557 1.03 3.8 3.948 2.771 6.506-0.104 0.256 0.021 0.547 0.277 0.65 0.062 0.024 0.124 0.036 0.187 0.036 0.198 0 0.386-0.118 0.464-0.313 0.902-2.24 0.345-4.708-1.213-6.36l0.813-2.019c0.562 0.088 1.131 0.146 1.706 0.146 0.742 0 1.481-0.074 2.198-0.221 0.708-0.145 1.976-0.608 2.028-0.628 0.18-0.066 0.306-0.228 0.325-0.418 0.021-0.189-0.069-0.374-0.231-0.476C29.422 67.541 28.567 66.481 28.371 65.328zM23.278 71.388c-0.399-0.295-0.836-0.55-1.318-0.744-0.481-0.194-0.973-0.313-1.465-0.378l0.617-1.534c0.398 0.231 0.805 0.447 1.229 0.627 0.501 0.212 1.022 0.373 1.549 0.508L23.278 71.388zM28.589 69.016c-1.302 0.269-2.697 0.269-3.997 0-0.636-0.13-1.262-0.324-1.86-0.578-0.59-0.249-1.156-0.557-1.685-0.913-0.526-0.355-1.021-0.764-1.469-1.212-0.122-0.122-0.233-0.255-0.348-0.383 0.082 0.003 0.164 0.005 0.25 0.005 1.989 0 3.131-0.885 3.131-2.426 0-1.359-0.542-1.868-1.021-2.317-0.576-0.539-1.171-1.098-1.171-3.589 0-3.185 2.22-3.66 3.543-3.66 0.245 0 0.404 0.019 0.419 0.021l0.564 0.072v-0.568c0-1.666 3.35-2.725 5.149-3.293 0.347-0.11 0.641-0.209 0.913-0.31 0.497 0.212 0.936 0.479 1.275 0.837 1.043 1.103 0.977 2.557 0.975 2.601 0 1.586 3.109 4.749 3.733 5.367 0.025 0.025 0.054 0.048 0.085 0.067 0.192 0.121 0.357 0.276 0.49 0.461 0.136 0.188 0.231 0.401 0.285 0.632 0.052 0.232 0.058 0.466 0.017 0.695-0.039 0.222-0.121 0.433-0.242 0.626-0.12 0.191-0.274 0.355-0.459 0.489-0.189 0.136-0.403 0.232-0.634 0.285-0.231 0.052-0.464 0.057-0.693 0.018-0.225-0.04-0.435-0.122-0.627-0.243-0.193-0.121-0.358-0.275-0.489-0.457-0.138-0.192-0.233-0.405-0.284-0.634-0.061-0.269-0.331-0.436-0.598-0.379-0.228 0.052-0.384 0.251-0.391 0.474-0.004 0.025-0.006 0.051-0.006 0.077 0 1.47 1.35 2.408 2.089 2.812-0.181 0.376-0.387 0.743-0.614 1.095-0.731 0.169-3.523 0.723-4.941-0.357-0.557-0.427-0.828-1.062-0.828-1.945 0-0.212-0.134-0.4-0.333-0.472-0.201-0.067-0.423-0.009-0.556 0.157-0.049 0.061-1.195 1.503-0.878 3.41 0.2 1.206 0.929 2.301 2.17 3.266C29.214 68.855 28.851 68.964 28.589 69.016z" fill="#c1c1c1" data-fill-palette-color="accent"></path><path d="M24.029 59.208c-0.885 0-1.604-0.72-1.604-1.604s0.72-1.604 1.604-1.604c0.276 0 0.5-0.224 0.5-0.5s-0.224-0.5-0.5-0.5c-1.437 0-2.604 1.168-2.604 2.604s1.168 2.604 2.604 2.604c0.276 0 0.5-0.224 0.5-0.5S24.306 59.208 24.029 59.208z" fill="#c1c1c1" data-fill-palette-color="accent"></path><circle cx="24.446" cy="57.603" r="0.42" fill="#c1c1c1" data-fill-palette-color="accent"></circle><path d="M28.593 54.317c0.024 0 0.05-0.002 0.075-0.006 0.272-0.04 0.461-0.295 0.42-0.568-0.115-0.772 0.42-1.495 1.192-1.611 0.77-0.107 1.494 0.42 1.61 1.192 0.041 0.273 0.292 0.464 0.568 0.42 0.272-0.04 0.461-0.295 0.42-0.568-0.196-1.317-1.432-2.234-2.747-2.032-1.317 0.197-2.229 1.431-2.032 2.748C28.137 54.139 28.35 54.317 28.593 54.317z" fill="#c1c1c1" data-fill-palette-color="accent"></path><path d="M58.04 59.77c-3.661-1.38-8.358 1.019-12.903 3.335-4.218 2.15-8.581 4.37-11.642 3.246-0.257-0.096-0.546 0.037-0.642 0.296s0.037 0.547 0.296 0.642c3.472 1.28 8.031-1.045 12.441-3.293 4.35-2.218 8.847-4.512 12.097-3.29 1.598 0.601 2.818 2.005 3.73 4.291 1.692 4.238 1.169 7.218-1.557 8.856-6.543 3.934-23.162-0.817-27.095-5.459-0.179-0.211-0.495-0.235-0.705-0.059-0.211 0.179-0.236 0.494-0.059 0.705 3.095 3.652 13.14 7.271 21.046 7.271 2.869-0.001 5.457-0.478 7.328-1.603 2.206-1.326 4.338-4.152 1.971-10.084C61.324 62.064 59.916 60.475 58.04 59.77z" fill="#c1c1c1" data-fill-palette-color="accent"></path><circle cx="43.819" cy="69.676" r="1.9" fill="#c1c1c1" data-fill-palette-color="accent"></circle><circle cx="49.36" cy="69.676" r="1.9" fill="#c1c1c1" data-fill-palette-color="accent"></circle><circle cx="54.902" cy="69.676" r="1.9" fill="#c1c1c1" data-fill-palette-color="accent"></circle><circle cx="68.94" cy="30.841" r="1.2" fill="#c1c1c1" data-fill-palette-color="accent"></circle><path d="M85.847 47.437c-0.478-1.188-1.313-2.155-2.376-2.822 0.342-0.902 0.335-2.086 0.326-3.166l-0.003-14.153c0.012-0.475 0.024-2.071-0.314-2.674-1.268-2.247-3.85-3.387-7.676-3.387-2.17 0-4.278 0.375-5.67 0.692-0.854 0.129-1.494 0.386-1.521 0.397-0.085 0.034-0.149 0.094-0.201 0.162-1.039 0.491-1.671 1.188-2.037 1.824-0.065 0.113-0.117 0.225-0.169 0.337-0.209-0.151-0.458-0.253-0.733-0.275-0.393-0.028-0.766 0.092-1.062 0.344-0.296 0.252-0.477 0.605-0.507 0.994-0.022 0.275 0.184 0.516 0.458 0.538 0.273 0.017 0.517-0.184 0.538-0.459 0.01-0.122 0.066-0.233 0.16-0.312 0.093-0.08 0.222-0.116 0.333-0.108 0.252 0.02 0.441 0.242 0.422 0.494 0 0.006 0.002 0.011 0.002 0.016-0.09 0.516-0.074 0.877-0.073 0.888 0 0.169-0.086 0.654-0.643 1.851-0.524-0.008-1.017 0.303-1.191 0.826-0.132 0.397-0.033 0.8 0.198 1.112-0.752 1.369-1.486 2.555-1.53 2.638-0.021 0.052-0.207 0.521-0.188 1.066 0.028 0.813 0.509 1.399 1.318 1.608 0.072 0.019 0.143 0.033 0.212 0.044 0.006 0.021 0.013 0.042 0.021 0.063 0.139 0.327 0.292 0.646 0.46 0.954 0.168 0.31 0.351 0.61 0.546 0.9 0.049 0.072 0.114 0.13 0.192 0.168 0.045 0.023 1.106 0.553 2.228 0.463 0.766-0.061 1.971-0.464 2.323-2.325 0.337 0.417 0.719 0.97 0.979 1.589 0.723 1.717 0.206 3.096-1.579 4.216-0.162 0.102-0.252 0.286-0.231 0.476 0.02 0.19 0.146 0.352 0.325 0.418 0 0 0.325 0.119 0.738 0.257 0.559 0.186 0.992 0.311 1.288 0.371 0.355 0.072 0.717 0.128 1.085 0.165 0.367 0.037 0.739 0.057 1.115 0.057 0.13 0 0.256-0.015 0.385-0.02v2.751c0 0.274 0.221 0.497 0.495 0.5 0.001 0 0.003 0 0.005 0 0.271 0 0.494-0.217 0.5-0.489 0-0.009 0.041-0.701 1.071-1.024l0.066 0.164c-0.482 0.51-0.887 1.094-1.171 1.759-0.628 1.475-0.644 3.105-0.045 4.592 0.078 0.195 0.266 0.313 0.464 0.313 0.062 0 0.126-0.012 0.187-0.036 0.257-0.104 0.381-0.395 0.277-0.65-0.499-1.239-0.485-2.598 0.038-3.826 0.451-1.06 1.248-1.894 2.25-2.428 0.756 0.082 1.622 0.265 2.593 0.553 0.371 0.112 0.717 0.17 1.027 0.17 0.567 0 1.037-0.184 1.399-0.548 0.881 0.555 1.572 1.36 1.969 2.345 0.103 0.257 0.397 0.379 0.65 0.277C85.826 47.984 85.95 47.693 85.847 47.437zM73.794 42.665c-0.469 0.017-0.94 0.015-1.398-0.031-0.333-0.035-0.663-0.085-0.985-0.151-0.223-0.045-0.562-0.141-0.988-0.278 1.533-1.309 1.95-3.007 1.168-4.866-0.655-1.557-1.914-2.695-1.968-2.743-0.146-0.131-0.357-0.163-0.537-0.084-0.18 0.081-0.296 0.259-0.296 0.457 0 2.377-1.132 2.467-1.504 2.497-0.646 0.057-1.324-0.198-1.588-0.31-0.148-0.227-0.289-0.461-0.419-0.701-0.119-0.22-0.23-0.445-0.334-0.674 0.341-0.154 0.577-0.386 0.716-0.522l0.083-0.083c0.002-0.002 0.004-0.004 0.007-0.007 0.15 0.108 0.358 0.125 0.53 0.03 0.242-0.133 0.33-0.437 0.197-0.679-0.154-0.279-0.354-0.438-0.597-0.472-0.377-0.057-0.624 0.199-0.847 0.422l-0.075 0.075c-0.322 0.316-0.58 0.465-1.004 0.356-0.385-0.099-0.555-0.3-0.567-0.673-0.011-0.301 0.09-0.589 0.083-0.589 0.078-0.127 0.849-1.378 1.609-2.776 1.662-3.056 1.662-3.837 1.661-4.124 0-0.01-0.047-0.979 0.5-1.93 0.703-1.221 2.048-1.869 3.988-1.942 1.719 0.066 2.565 1.146 2.565 3.317V42.665zM79.13 32.89v7.97 0.116 1.827 0.987c-0.317 0.063-0.63 0.155-0.938 0.27v-1.49-1.116-7.226c-0.294 0.286-0.635 0.518-1 0.713v6.993 1.065 1.246c-0.033 0-0.07-0.005-0.103-0.005-0.218 0-0.412 0.016-0.602 0.035-0.079 0.008-0.158 0.015-0.233 0.025v-0.603-0.398-1.032-6.953c-0.322 0.086-0.654 0.141-1 0.151v7.043 0.016 1.365 0.674c-0.172 0.073-0.327 0.153-0.461 0.242v-1.217-1.01V26.183c0-1.644-0.447-2.672-1.064-3.315-0.174-0.182-0.36-0.337-0.555-0.462 0.662-0.082 1.367-0.131 2.08-0.152v0.775 3.647c0.346 0.01 0.678 0.066 1 0.151v-3.557-1.019c0.019 0 0.038 0.002 0.057 0.002 0.301 0.009 0.599 0.02 0.881 0.045v0.24 1.064 3.598c0.365 0.195 0.706 0.427 1 0.713v-3.831-1.116-0.544c0.328 0.056 0.64 0.126 0.938 0.208v0.853 1.193 4.574c0.253 0.556 0.403 1.169 0.403 1.82S79.383 32.334 79.13 32.89zM81.067 24.994v1.474 12.601 1.473 3.19c-0.167-0.022-0.335-0.036-0.503-0.044l-0.435 0.044v-1.124-1.249-1.314V25.491v-1.314-1.199c0.342 0.147 0.65 0.323 0.938 0.515V24.994zM82.58 44.138c-0.169-0.07-0.34-0.135-0.513-0.189v-4.551-1.802V27.94v-1.802V24.36c0.203 0.234 0.388 0.482 0.541 0.754 0.134 0.237 0.203 1.255 0.186 2.1 0 0.023 0 0.047-0.001 0.07v11.041 2.666l0.003 0.468C82.804 42.354 82.812 43.412 82.58 44.138z" fill="#c1c1c1" data-fill-palette-color="accent"></path><path d="M69.868 24.61c-1.324-0.201-2.551 0.714-2.748 2.032-0.041 0.273 0.146 0.528 0.42 0.569 0.269 0.033 0.527-0.146 0.568-0.42 0.116-0.772 0.843-1.309 1.611-1.191 0.375 0.056 0.704 0.254 0.93 0.558 0.225 0.304 0.318 0.678 0.263 1.052-0.041 0.273 0.147 0.527 0.42 0.568 0.025 0.003 0.051 0.005 0.075 0.005 0.243 0 0.456-0.178 0.493-0.426 0.096-0.638-0.063-1.276-0.447-1.794C71.069 25.044 70.506 24.705 69.868 24.61z" fill="#c1c1c1" data-fill-palette-color="accent"></path><path d="M75.96 28.466c-0.276 0-0.5 0.224-0.5 0.5s0.224 0.5 0.5 0.5c0.885 0 1.604 0.72 1.604 1.604 0 0.884-0.72 1.604-1.604 1.604-0.276 0-0.5 0.224-0.5 0.5s0.224 0.5 0.5 0.5c1.437 0 2.604-1.168 2.604-2.604S77.396 28.466 75.96 28.466z" fill="#c1c1c1" data-fill-palette-color="accent"></path><circle cx="75.543" cy="31.07" r="0.42" fill="#c1c1c1" data-fill-palette-color="accent"></circle><path d="M66.748 41.3c-3.933 4.642-20.551 9.395-27.095 5.459-2.726-1.639-3.249-4.618-1.557-8.856 0.912-2.287 2.133-3.69 3.73-4.291 3.25-1.221 7.747 1.072 12.097 3.29 4.41 2.248 8.97 4.575 12.441 3.293 0.259-0.095 0.392-0.383 0.296-0.642-0.096-0.26-0.387-0.393-0.642-0.296-3.062 1.122-7.424-1.097-11.642-3.246-4.543-2.317-9.24-4.713-12.903-3.335-1.876 0.706-3.284 2.294-4.308 4.856-2.367 5.932-0.235 8.758 1.971 10.084 1.871 1.125 4.459 1.603 7.328 1.603 7.906 0 17.951-3.62 21.046-7.271 0.178-0.211 0.152-0.526-0.059-0.705C67.243 41.064 66.929 41.089 66.748 41.3z" fill="#c1c1c1" data-fill-palette-color="accent"></path><circle cx="55.696" cy="42.581" r="1.9" fill="#c1c1c1" data-fill-palette-color="accent"></circle><circle cx="50.154" cy="42.581" r="1.9" fill="#c1c1c1" data-fill-palette-color="accent"></circle><circle cx="44.613" cy="42.581" r="1.9" fill="#c1c1c1" data-fill-palette-color="accent"></circle></g></svg></g></svg></g></svg></g><defs></defs></svg><rect width="395.52" height="86.31076961102207" fill="none" stroke="none" visibility="hidden"></rect></g></svg></g></svg>